<svg data-v-018024e4="" xmlns="http://www.w3.org/2000/svg" width="56" height="40" aria-labelledby="sellsy" viewBox="0 0 35 24" role="presentation" class="white"><title id="iconName" lang="fr">sellsy icon</title> <g fill="#010061"><svg data-v-018024e4="" viewBox="0 0 35 24" xmlns="http://www.w3.org/2000/svg"><path d="m19.418 10.812c0.1089 0 0.2134 0.0433 0.2905 0.1204 0.077 0.077 0.1203 0.1815 0.1203 0.2905v7.6559c0 0.109-0.0433 0.2135-0.1203 0.2905-0.0771 0.0771-0.1816 0.1204-0.2905 0.1204h-1.2326c-0.1082-0.0026-0.2112-0.0467-0.2877-0.1232s-0.1206-0.1795-0.1231-0.2877v-7.6559c0-0.109 0.0432-0.2135 0.1203-0.2905 0.077-0.0771 0.1815-0.1204 0.2905-0.1204h1.2326zm-4.0084 2.2347c0.0614 0 0.1222 0.0122 0.1788 0.036s0.1078 0.0586 0.1508 0.1025c0.0429 0.0439 0.0767 0.0959 0.0992 0.153 0.0226 0.0571 0.0335 0.1181 0.0322 0.1795v5.301c0.0013 0.0614-0.0096 0.1224-0.0322 0.1795-0.0225 0.0571-0.0563 0.1091-0.0992 0.153-0.043 0.0438-0.0942 0.0787-0.1508 0.1025s-0.1174 0.036-0.1788 0.036h-1.1524c-0.0618 0.0014-0.1232-0.0099-0.1804-0.0332-0.0573-0.0232-0.1091-0.0581-0.1523-0.1022-0.0433-0.0442-0.0769-0.0968-0.099-0.1545-0.022-0.0577-0.032-0.1194-0.0292-0.1811v-5.301c-0.0028-0.0618 0.0072-0.1234 0.0292-0.1811 0.0221-0.0578 0.0557-0.1104 0.099-0.1545 0.0432-0.0442 0.095-0.079 0.1523-0.1023 0.0572-0.0233 0.1186-0.0346 0.1804-0.0331h1.1524zm-4.0083 2.2747c0.1169 0 0.2291 0.0465 0.3117 0.1292 0.0827 0.0827 0.1292 0.1948 0.1292 0.3117v3.0865c0 0.1169-0.0465 0.2291-0.1292 0.3117-0.0826 0.0827-0.1948 0.1292-0.3117 0.1292h-1.1123c-0.0575 0-0.1144-0.0115-0.1673-0.0337-0.0529-0.0223-0.1009-0.055-0.14104-0.096-0.04014-0.0411-0.07166-0.0898-0.09272-0.1433-0.02105-0.0534-0.03121-0.1105-0.02987-0.1679v-3.0865c-4e-5 -0.1152 0.04503-0.2258 0.12556-0.3083 0.08057-0.0824 0.19017-0.13 0.30537-0.1326h1.1123zm9.2092-15.322c2.3689 0.01061 4.6367 0.96116 6.3053 2.6428 1.6685 1.6817 2.6012 3.9569 2.5932 6.3259 1.7373 0.54983 3.2231 1.6983 4.1931 3.2409 0.9699 1.5427 1.361 3.3794 1.1036 5.1834-0.2574 1.8039-1.1465 3.4581-2.5091 4.6679-1.3626 1.2099-3.1103 1.897-4.9321 1.9391h-1.1925c-0.1116 0-0.2186-0.0443-0.2976-0.1233-0.0789-0.0789-0.1232-0.186-0.1232-0.2976v-1.1323c-1e-4 -0.1126 0.044-0.2207 0.1226-0.3012 0.0787-0.0806 0.1857-0.1271 0.2982-0.1297h1.2026c1.4359-0.0492 2.8001-0.6396 3.8188-1.6528 1.0187-1.0131 1.6166-2.374 1.6737-3.8097 0.0571-1.4356-0.4309-2.8397-1.366-3.9305s-2.2481-1.7877-3.6756-1.9507c-0.0665-0.0049-0.1289-0.0342-0.1752-0.0823-0.0462-0.0481-0.073-0.1115-0.0753-0.1782v-1.443c0-1.8604-0.7391-3.6446-2.0546-4.9601-1.3155-1.3155-3.0997-2.0545-4.96-2.0545-1.6295 0.00398-3.2055 0.58164-4.4515 1.6316s-2.0825 2.5052-2.3627 4.1104l-0.0502 0.44092c-0.0143 0.10187-0.0646 0.19524-0.1418 0.26324s-0.1762 0.10614-0.279 0.10753h-3.0063c-1.1083 0.05548-2.1545 0.52873-2.928 1.3245-0.77346 0.79578-1.2168 1.855-1.2407 2.9645v0.2004 0.9219c0 0.0355-7e-3 0.0707-0.0206 0.1035-0.0136 0.0329-0.03353 0.0627-0.05866 0.0878-0.02512 0.0251-0.05495 0.0451-0.08778 0.0587s-0.068 0.0206-0.10353 0.0206c-0.53424 0.0088-1.0604 0.1318-1.5432 0.3607-0.58834 0.2759-1.0972 0.6963-1.4792 1.222-0.38199 0.5256-0.62463 1.1395-0.70531 1.7843-0.03202 0.2022-0.04877 0.4065-0.05011 0.6113-0.0012 0.9963 0.38115 1.9549 1.0678 2.677 0.6866 0.722 1.6248 1.1521 2.6199 1.201h13.729c0.6375-0.0852 1.2221-0.3998 1.6445-0.8849 0.4223-0.4851 0.6535-1.1074 0.6503-1.7506v-10.422c0-0.11694 0.0464-0.22909 0.1291-0.31178s0.1948-0.12915 0.3118-0.12915h1.1123c0.0574-1e-5 0.1143 0.01146 0.1672 0.03374 0.053 0.02228 0.1009 0.05492 0.1411 0.096 0.0401 0.04108 0.0717 0.08977 0.0927 0.14321 0.0211 0.05344 0.0312 0.11055 0.0299 0.16798v10.632c-0.0548 1.0821-0.485 2.1113-1.2165 2.9105-0.7316 0.7992-1.7188 1.3185-2.7919 1.4686h-13.809c-1.3953-0.0195-2.7384-0.5335-3.7902-1.4506-1.0518-0.9171-1.7439-2.1777-1.9532-3.5574-0.20929-1.3796 0.07786-2.7888 0.81032-3.9765 0.73246-1.1878 1.8627-2.077 3.1894-2.5094 0.13342-1.4895 0.77993-2.8863 1.8291-3.9519s2.4358-1.7338 3.9229-1.8903h0.12028 1.0021 1.0021c0.4901-1.8962 1.5928-3.5774 3.1367-4.7825s3.4426-1.8664 5.401-1.8814h0.0101z" clip-rule="evenodd" fill-rule="evenodd"></path></svg></g></svg>